<svg width="24" height="18" viewBox="0 0 24 18" fill="none" xmlns="http://www.w3.org/2000/svg">
<mask id="path-1-inside-1_1_2274" fill="white">
<path d="M17.1875 0C15.2516 0 13.5566 0.8325 12.5 2.23969C11.4434 0.8325 9.74844 0 7.8125 0C6.27146 0.00173694 4.79404 0.614681 3.70436 1.70436C2.61468 2.79404 2.00174 4.27146 2 5.8125C2 12.375 11.7303 17.6869 12.1447 17.9062C12.2539 17.965 12.376 17.9958 12.5 17.9958C12.624 17.9958 12.7461 17.965 12.8553 17.9062C13.2697 17.6869 23 12.375 23 5.8125C22.9983 4.27146 22.3853 2.79404 21.2956 1.70436C20.206 0.614681 18.7285 0.00173694 17.1875 0ZM12.5 16.3875C10.7881 15.39 3.5 10.8459 3.5 5.8125C3.50149 4.66921 3.95632 3.57317 4.76475 2.76475C5.57317 1.95632 6.66921 1.50149 7.8125 1.5C8.22567 1.5 8.62383 1.54987 9 1.64515C10.284 1.97038 11.3118 2.82473 11.8062 4.03125C11.8628 4.16881 11.9589 4.28646 12.0824 4.36926C12.2059 4.45207 12.3513 4.49627 12.5 4.49627C12.6487 4.49627 12.7941 4.45207 12.9176 4.36926C13.0411 4.28646 13.1372 4.16881 13.1937 4.03125C13.8331 2.46844 15.3641 1.5 17.1875 1.5C18.3308 1.50149 19.4268 1.95632 20.2353 2.76475C21.0437 3.57317 21.4985 4.66921 21.5 5.8125C21.5 10.8384 14.21 15.3891 12.5 16.3875Z"/>
</mask>
<path d="M17.1875 0C15.2516 0 13.5566 0.8325 12.5 2.23969C11.4434 0.8325 9.74844 0 7.8125 0C6.27146 0.00173694 4.79404 0.614681 3.70436 1.70436C2.61468 2.79404 2.00174 4.27146 2 5.8125C2 12.375 11.7303 17.6869 12.1447 17.9062C12.2539 17.965 12.376 17.9958 12.5 17.9958C12.624 17.9958 12.7461 17.965 12.8553 17.9062C13.2697 17.6869 23 12.375 23 5.8125C22.9983 4.27146 22.3853 2.79404 21.2956 1.70436C20.206 0.614681 18.7285 0.00173694 17.1875 0ZM12.5 16.3875C10.7881 15.39 3.5 10.8459 3.5 5.8125C3.50149 4.66921 3.95632 3.57317 4.76475 2.76475C5.57317 1.95632 6.66921 1.50149 7.8125 1.5C8.22567 1.5 8.62383 1.54987 9 1.64515C10.284 1.97038 11.3118 2.82473 11.8062 4.03125C11.8628 4.16881 11.9589 4.28646 12.0824 4.36926C12.2059 4.45207 12.3513 4.49627 12.5 4.49627C12.6487 4.49627 12.7941 4.45207 12.9176 4.36926C13.0411 4.28646 13.1372 4.16881 13.1937 4.03125C13.8331 2.46844 15.3641 1.5 17.1875 1.5C18.3308 1.50149 19.4268 1.95632 20.2353 2.76475C21.0437 3.57317 21.4985 4.66921 21.5 5.8125C21.5 10.8384 14.21 15.3891 12.5 16.3875Z" fill="black"/>
<path d="M8.67107 -48.3538L-0.328928 -48.2946L0.328928 51.7033L9.32893 51.6441L8.67107 -48.3538ZM17.1875 0L17.3002 -99.9999L17.2439 -100H17.1875V0ZM12.5 2.23969L-67.468 62.2823L12.5 168.788L92.468 62.2823L12.5 2.23969ZM7.8125 0V-100H7.75614L7.69979 -99.9999L7.8125 0ZM2 5.8125L-97.9999 5.69979L-98 5.75614V5.8125L2 5.8125ZM12.1447 17.9062L59.5197 -70.1597L59.2271 -70.3171L58.9335 -70.4725L12.1447 17.9062ZM12.8553 17.9062L-33.9335 -70.4725L-34.2271 -70.3171L-34.5197 -70.1597L12.8553 17.9062ZM23 5.8125H123V5.75614L123 5.69979L23 5.8125ZM12.5 16.3875L-37.8459 102.789L12.5513 132.156L62.9224 102.745L12.5 16.3875ZM3.5 5.8125L-96.4999 5.68232L-96.5 5.74741V5.8125H3.5ZM7.8125 1.5L7.8125 -98.5H7.74741L7.68232 -98.4999L7.8125 1.5ZM11.8062 4.03125L-80.7236 41.9552L-80.7087 41.9916L-80.6938 42.028L11.8062 4.03125ZM12.5 4.49627L12.5 -95.5037L12.5 4.49627ZM13.1937 4.03125L105.694 42.028L105.721 41.9623L105.748 41.8967L13.1937 4.03125ZM17.1875 1.5L17.3177 -98.4999L17.2526 -98.5H17.1875V1.5ZM21.5 5.8125L121.5 5.8125V5.74741L121.5 5.68232L21.5 5.8125ZM9 1.64515L-15.5548 98.5836L9 1.64515ZM17.1875 -100C-13.9717 -100 -46.2218 -86.0998 -67.468 -57.8029L92.468 62.2823C73.3349 87.7648 44.4749 100 17.1875 100V-100ZM92.468 -57.8029C71.2218 -86.0998 38.9717 -100 7.8125 -100V100C-19.4749 100 -48.3349 87.7648 -67.468 62.2823L92.468 -57.8029ZM7.69979 -99.9999C-20.3238 -99.9684 -47.1906 -88.822 -67.0063 -69.0063L74.415 72.415C56.7787 90.0514 32.8668 99.9718 7.92521 99.9999L7.69979 -99.9999ZM-67.0063 -69.0063C-86.822 -49.1906 -97.9684 -22.3238 -97.9999 5.69979L102 5.92521C101.972 30.8668 92.0514 54.7787 74.415 72.415L-67.0063 -69.0063ZM-98 5.8125C-98 55.8873 -64.366 84.7382 -58.9657 89.4676C-48.2918 98.8153 -38.2331 104.385 -34.6441 106.285L58.9335 -70.4725C62.1081 -68.7919 67.0944 -65.9878 72.7996 -60.9915C75.7611 -58.3979 81.7564 -52.7649 87.5616 -43.7649C93.3556 -34.7823 102 -17.632 102 5.8125L-98 5.8125ZM-35.2303 105.972C-20.5593 113.864 -4.15988 117.996 12.5 117.996V-82.0042C28.9118 -82.0042 45.0671 -77.9344 59.5197 -70.1597L-35.2303 105.972ZM12.5 117.996C29.1599 117.996 45.5593 113.864 60.2303 105.972L-34.5197 -70.1597C-20.0671 -77.9344 -3.91184 -82.0042 12.5 -82.0042V117.996ZM59.6441 106.285C63.2331 104.385 73.2918 98.8153 83.9657 89.4676C89.366 84.7382 123 55.8873 123 5.8125H-77C-77 -17.632 -68.3556 -34.7823 -62.5616 -43.7649C-56.7564 -52.7649 -50.7611 -58.3979 -47.7996 -60.9915C-42.0944 -65.9878 -37.1081 -68.7919 -33.9335 -70.4725L59.6441 106.285ZM123 5.69979C122.968 -22.3239 111.822 -49.1906 92.0063 -69.0063L-49.415 72.415C-67.0514 54.7787 -76.9718 30.8668 -76.9999 5.92521L123 5.69979ZM92.0063 -69.0063C72.1906 -88.822 45.3238 -99.9684 17.3002 -99.9999L17.0748 99.9999C-7.86677 99.9718 -31.7787 90.0514 -49.415 72.415L92.0063 -69.0063ZM62.8459 -70.0144C64.6177 -68.982 69.5876 -66.0641 75.3896 -60.6785C78.3663 -57.9154 84.1736 -52.1211 89.7429 -43.1052C95.2466 -34.1954 103.5 -17.2409 103.5 5.8125H-96.5C-96.5 53.3764 -65.5404 81.3879 -60.6735 85.9054C-50.7994 95.0708 -41.3296 100.759 -37.8459 102.789L62.8459 -70.0144ZM103.5 5.94268C103.467 31.2759 93.3887 55.5621 75.4754 73.4754L-65.9459 -67.9459C-85.4761 -48.4158 -96.464 -21.9375 -96.4999 5.68232L103.5 5.94268ZM75.4754 73.4754C57.5621 91.3887 33.2759 101.467 7.94268 101.5L7.68232 -98.4999C-19.9375 -98.464 -46.4158 -87.4761 -65.9459 -67.9459L75.4754 73.4754ZM-80.6938 42.028C-73.1031 60.5068 -60.1904 76.3117 -43.5967 87.4345L67.7615 -78.696C84.1081 -67.7388 96.8286 -52.1692 104.306 -33.9655L-80.6938 42.028ZM-43.5967 87.4345C-27.003 98.5574 -7.47704 104.496 12.5 104.496L12.5 -95.5037C32.1796 -95.5037 51.4148 -89.6533 67.7615 -78.696L-43.5967 87.4345ZM12.5 104.496C32.477 104.496 52.003 98.5574 68.5967 87.4345L-42.7615 -78.696C-26.4148 -89.6533 -7.17961 -95.5037 12.5 -95.5037L12.5 104.496ZM68.5967 87.4345C85.1906 76.3115 98.1032 60.5065 105.694 42.028L-79.3063 -33.9655C-71.8287 -52.1689 -59.1084 -67.7386 -42.7615 -78.696L68.5967 87.4345ZM105.748 41.8967C89.4285 81.7851 51.6189 101.5 17.1875 101.5V-98.5C-20.8908 -98.5 -61.7622 -76.8483 -79.3601 -33.8342L105.748 41.8967ZM17.0573 101.5C-8.27591 101.467 -32.5621 91.3887 -50.4754 73.4754L90.9459 -67.9459C71.4158 -87.4761 44.9375 -98.464 17.3177 -98.4999L17.0573 101.5ZM-50.4754 73.4754C-68.3887 55.5621 -78.4669 31.2759 -78.4999 5.94268L121.5 5.68232C121.464 -21.9375 110.476 -48.4158 90.9459 -67.9459L-50.4754 73.4754ZM-78.5 5.8125C-78.5 -17.276 -70.2229 -34.2425 -64.7296 -43.1304C-59.1654 -52.133 -53.3673 -57.9175 -50.4019 -60.6708C-44.619 -66.0404 -39.6687 -68.9502 -37.9224 -69.9698L62.9224 102.745C66.3787 100.727 75.829 95.0424 85.6844 85.8915C90.4999 81.4202 121.5 53.3983 121.5 5.8125H-78.5ZM7.8125 101.5C0.171077 101.5 -7.68863 100.576 -15.5548 98.5836L33.5548 -95.2933C24.9363 -97.4764 16.2803 -98.5 7.8125 -98.5L7.8125 101.5ZM-15.5548 98.5836C-43.0574 91.6171 -68.454 71.8916 -80.7236 41.9552L104.336 -33.8927C91.0775 -66.2422 63.6253 -87.6763 33.5548 -95.2933L-15.5548 98.5836Z" fill="black" mask="url(#path-1-inside-1_1_2274)"/>
<ellipse cx="8" cy="4.5" rx="5" ry="3.5" fill="black"/>
<ellipse cx="17" cy="4.5" rx="5" ry="3.5" fill="black"/>
<ellipse cx="10.5" cy="7" rx="7.5" ry="4" fill="black"/>
<ellipse cx="8.66571" cy="10.7783" rx="6.0111" ry="3.5" transform="rotate(46.8161 8.66571 10.7783)" fill="black"/>
<ellipse cx="17.9973" cy="7.95505" rx="6.0111" ry="3.5" transform="rotate(119.354 17.9973 7.95505)" fill="black"/>
<ellipse cx="14.9973" cy="10.9551" rx="6.0111" ry="3.5" transform="rotate(119.354 14.9973 10.9551)" fill="black"/>
</svg>
